:SAMPLES-PER-SECOND 30
:FULLY-SPECIFIED
:DEGREES
827
root  -70.465 40.0528 0.238847 178.022 -1.3536 178.893
RightUpLeg  -7.52455 2.45095 4.398
RightLeg  20.7296 20.27 5.30456
RightFoot  -6.53305 0.297987 -8.12379
RightToes  -1.16417e-010 0 -3.6325e-017
Spine  4.39064 1.03522 12.6666
Spine1  4.70417 2.59936 -3.71415
HEad  -23.3975 -18.6303 3.49287
LeftShoulder1  -0.534866 4.8902 -32.4236
LeftArm  19.0602 20.1469 -43.9162
LeftForeArm  16.3853 -21.2665 -4.78991
LeftHand  -0.0930881 9.02311 -1.34718
RightShoulder  -0.978146 -6.25579 28.9861
RightArm  25.8588 4.97736 46.9883
RightForeArm  5.41708 21.5077 4.74921
RightHand  -0.207796 5.59648 -2.50798
LeftUpLeg  -10.4284 -11.4523 4.16688
LeftLeg  32.3679 3.30942 2.60321
LeftFoot  -10.0234 0.0643125 -0.294335
LeftToes  3.13772e-010 -3.14513e-011 3.96022e-013
828
root  -71.0149 40.0803 0.0811296 178.544 6.54666 179.075
RightUpLeg  -8.09244 5.81954 4.25921
RightLeg  21.1712 24.4844 6.37893
RightFoot  -6.43099 0.265694 -7.20534
RightToes  -1.16417e-010 0 -3.6325e-017
Spine  3.98489 0.849832 12.6198
Spine1  5.50075 2.44657 -4.29421
HEad  -23.7121 -18.0909 4.91853
LeftShoulder1  -0.489835 4.80486 -31.5117
LeftArm  17.5162 20.4517 -44.1536
LeftForeArm  18.2125 -21.5759 -4.53967
LeftHand  -0.0865976 8.17042 -1.63076
RightShoulder  -1.03765 -6.35776 29.8128
RightArm  24.9277 7.51542 46.3012
RightForeArm  5.88758 20.1543 4.95989
RightHand  -0.141419 5.22162 -1.86196
LeftUpLeg  -9.1433 -21.2217 4.84303
LeftLeg  26.5144 -0.545967 0.0626219
LeftFoot  -11.125 0.0664095 0.54879
LeftToes  3.13772e-010 -3.14513e-011 3.96022e-013
829
root  -71.5335 40.0868 -0.0675317 179.045 14.3759 179.538
RightUpLeg  -8.6439 9.84005 4.28812
RightLeg  21.3994 28.2361 7.28128
RightFoot  -6.539 0.185982 -5.46917
RightToes  -1.16417e-010 0 -3.6325e-017
Spine  4.09202 0.910535 11.8213
Spine1  5.81323 2.18649 -3.14668
HEad  -23.8063 -17.736 4.25992
LeftShoulder1  -0.499809 4.8142 -32.0009
LeftArm  16.8148 20.7421 -43.252
LeftForeArm  18.7202 -22.3314 -4.22873
LeftHand  -0.0804537 7.99222 -1.5645
RightShoulder  -0.931888 -6.15916 28.5173
RightArm  21.396 8.99712 46.8655
RightForeArm  7.1999 18.7283 5.13878
RightHand  -0.1378 5.77143 -1.75663
LeftUpLeg  -7.78003 -28.9524 5.60334
LeftLeg  22.2645 -5.71578 -2.28066
LeftFoot  -11.9983 0.0743898 0.958224
LeftToes  3.13772e-010 -3.14513e-011 3.96022e-013
830
root  -72.0356 40.027 -0.118777 -179.84 22.7565 179.841
RightUpLeg  -10.614 16.9455 3.54514
RightLeg  22.0584 29.3778 8.46759
RightFoot  -7.42284 0.0554121 -3.03699
RightToes  -1.16417e-010 0 -3.6325e-017
Spine  4.50524 1.24742 10.522
Spine1  5.40973 2.2786 -2.34475
HEad  -23.5818 -18.0725 3.52718
LeftShoulder1  -0.525439 4.88288 -31.9459
LeftArm  14.7774 21.5122 -42.276
LeftForeArm  19.7683 -23.3341 -4.02172
LeftHand  -0.072549 7.51695 -1.67403
RightShoulder  -0.830349 -5.89522 28.1191
RightArm  19.1094 11.1521 46.5766
RightForeArm  8.18403 17.4784 5.33216
RightHand  -0.161943 5.61373 -2.02992
LeftUpLeg  -7.24108 -29.4894 6.06505
LeftLeg  20.6774 -8.17096 -3.10424
LeftFoot  -13.7202 0.0662674 -0.766416
LeftToes  3.13772e-010 -3.14513e-011 3.96022e-013
831
root  -72.4932 40.0502 -0.16217 -179.137 30.9817 179.639
RightUpLeg  -12.253 24.3018 1.88778
RightLeg  21.5714 29.7907 9.11777
RightFoot  -8.71712 -0.0668312 0.320831
RightToes  -1.16417e-010 0 -3.6325e-017
Spine  4.74127 1.56475 7.98817
Spine1  5.50272 2.29769 -1.38818
HEad  -23.5691 -15.8169 3.07926
LeftShoulder1  -0.594359 5.05268 -32.2309
LeftArm  11.9292 22.2951 -40.7612
LeftForeArm  21.0753 -24.3885 -4.10014
LeftHand  -0.0691791 8.25186 -0.951471
RightShoulder  -0.868475 -5.98202 28.447
RightArm  16.9968 14.5033 46.2217
RightForeArm  9.6215 15.3707 5.78889
RightHand  -0.155537 5.94284 -1.91197
LeftUpLeg  -5.51108 -21.1859 5.40014
LeftLeg  18.5965 -8.35922 -2.71809
LeftFoot  -14.706 0.0533627 -1.12364
LeftToes  3.13772e-010 -3.14513e-011 3.96022e-013
832
root  -72.9119 40.1945 -0.215693 -179.029 38.1571 178.971
RightUpLeg  -13.1159 28.3494 -0.355636
RightLeg  19.7568 32.3316 9.67663
RightFoot  -10.0876 -0.111545 4.3071
RightToes  -1.16417e-010 0 -3.6325e-017
Spine  5.15703 1.44053 5.54566
Spine1  5.33197 2.10798 -1.85793
HEad  -23.1668 -13.937 3.42788
LeftShoulder1  -0.607381 5.09644 -31.9887
LeftArm  10.7487 23.066 -39.1584
LeftForeArm  21.6478 -25.1482 -4.23943
LeftHand  -0.0667164 7.53332 -1.35019
RightShoulder  -0.819205 -5.89766 27.6218
RightArm  14.961 17.0696 47.3434
RightForeArm  10.1936 13.1388 6.30445
RightHand  -0.267995 5.82621 -3.10569
LeftUpLeg  -3.41746 -11.4054 3.93575
LeftLeg  15.6482 -9.5828 -1.76926
LeftFoot  -13.6729 0.0958188 0.618577
LeftToes  3.13772e-010 -3.14513e-011 3.96022e-013
833
root  -73.3647 40.202 -0.283131 -179.267 44.5076 178.475
RightUpLeg  -14.5821 30.4522 -2.58878
RightLeg  19.3901 34.1997 11.1947
RightFoot  -12.1113 -0.0363999 7.40078
RightToes  -1.16417e-010 0 -3.6325e-017
Spine  6.16382 1.16586 3.00346
Spine1  4.43819 1.64319 -1.67483
HEad  -22.241 -12.6751 2.90331
LeftShoulder1  -0.59087 5.04326 -32.225
LeftArm  9.36902 23.4547 -37.4234
LeftForeArm  20.5936 -24.5776 -4.1414
LeftHand  -0.042421 8.00655 0.0237704
RightShoulder  -0.855275 -6.04122 27.1078
RightArm  14.8765 18.7143 47.8358
RightForeArm  9.67403 12.4409 6.55559
RightHand  -0.282674 5.18755 -3.40483
LeftUpLeg  -2.52052 -4.32005 2.58329
LeftLeg  15.0488 -10.4596 -0.63864
LeftFoot  -13.5928 0.0947207 0.678822
LeftToes  3.13772e-010 -3.14513e-011 3.96022e-013
834
root  -73.8187 40.1553 -0.328783 -179.66 50.2698 177.526
RightUpLeg  -17.0577 29.341 -4.8127
RightLeg  20.1723 32.0307 11.9377
RightFoot  -12.8699 0.0162964 7.45946
RightToes  -1.16417e-010 0 -3.6325e-017
Spine  6.72078 0.954862 0.649903
Spine1  3.79819 1.29957 -1.41534
HEad  -21.7691 -12.0967 2.77765
LeftShoulder1  -0.533646 4.91791 -31.609
LeftArm  8.03985 22.9665 -36.4031
LeftForeArm  19.5682 -22.7213 -4.13996
LeftHand  -0.0500685 7.21491 -0.496954
RightShoulder  -0.844345 -6.00779 27.117
RightArm  16.5133 19.0353 47.6963
RightForeArm  8.06191 13.4821 6.52521
RightHand  -0.312604 5.66426 -3.60636
LeftUpLeg  -2.48264 0.524208 1.78315
LeftLeg  14.9343 -9.6252 -0.775997
LeftFoot  -14.0134 0.0847337 0.0253332
LeftToes  3.13772e-010 -3.14513e-011 3.96022e-013
